<svg xmlns="http://www.w3.org/2000/svg" xmlns:xlink="http://www.w3.org/1999/xlink" width="500" zoomAndPan="magnify" viewBox="0 0 375 374.999991" height="500" preserveAspectRatio="xMidYMid meet" version="1.0"><defs><clipPath id="4069ff5807"><path d="M 24.726562 69.117188 L 350.226562 69.117188 L 350.226562 306 L 24.726562 306 Z M 24.726562 69.117188 " clip-rule="nonzero"/></clipPath></defs><g clip-path="url(#4069ff5807)"><path fill="#ffffff" d="M 246.5625 169.253906 L 247.085938 155.878906 L 242.394531 152.753906 L 241.871094 139.722656 L 246.738281 139.550781 L 263.238281 139.550781 L 268.105469 139.722656 L 267.582031 152.753906 L 262.894531 155.878906 L 263.414062 169.253906 Z M 127.914062 135.378906 L 112.453125 135.378906 L 114.539062 118.878906 L 117.839844 116.273438 L 119.921875 99.941406 L 122.179688 116.273438 L 125.480469 118.878906 Z M 133.300781 139.550781 L 132.777344 152.753906 L 128.085938 155.878906 L 128.609375 169.253906 L 111.933594 169.253906 L 112.453125 155.878906 L 107.589844 152.753906 L 107.066406 139.722656 L 111.933594 139.550781 Z M 262.546875 135.378906 L 247.085938 135.378906 L 249.167969 118.878906 L 252.644531 116.273438 L 254.726562 99.941406 L 256.8125 116.273438 L 260.113281 118.878906 Z M 243.609375 230.75 L 243.4375 196.703125 L 238.746094 192.535156 L 238.746094 173.597656 L 246.5625 173.25 L 263.414062 173.25 L 271.230469 173.597656 L 271.230469 192.707031 L 266.539062 196.875 L 266.195312 230.75 Z M 170.648438 178.460938 C 170.648438 169.082031 178.292969 161.613281 187.5 161.613281 C 193.753906 161.613281 199.136719 164.914062 202.089844 169.777344 C 199.660156 166.996094 196.183594 165.261719 192.191406 165.261719 C 184.894531 165.261719 178.988281 171.167969 178.988281 178.460938 C 178.988281 185.757812 184.894531 191.664062 192.191406 191.664062 C 196.183594 191.664062 199.660156 189.929688 202.089844 187.148438 C 199.136719 192.011719 193.753906 195.3125 187.5 195.3125 C 178.117188 195.3125 170.648438 187.84375 170.648438 178.460938 Z M 350.273438 305.625 C 329.773438 299.371094 309.273438 293.117188 288.777344 286.863281 C 308.058594 263.757812 319.699219 234.050781 319.699219 201.742188 C 319.871094 128.605469 260.632812 69.367188 187.5 69.367188 C 114.363281 69.367188 55.125 128.605469 55.125 201.742188 C 55.125 234.226562 66.765625 263.929688 86.046875 286.863281 C 65.722656 293.117188 45.222656 299.371094 24.726562 305.625 C 52.695312 302.148438 80.664062 298.675781 108.632812 295.199219 L 108.632812 262.542969 L 102.378906 257.675781 L 101.855469 234.746094 L 138.335938 234.746094 L 137.816406 257.675781 L 131.5625 262.542969 L 131.5625 292.246094 L 147.195312 290.335938 C 148.066406 288.425781 148.414062 286.339844 148.238281 284.257812 C 147.71875 280.957031 145.808594 278.003906 142.855469 276.4375 L 151.539062 276.4375 C 143.546875 268.796875 140.25 257.503906 142.855469 246.734375 C 148.238281 225.886719 172.039062 226.0625 187.5 200.523438 C 202.960938 226.0625 226.933594 225.886719 232.144531 246.734375 C 234.925781 257.503906 231.625 268.796875 223.457031 276.4375 L 232.144531 276.4375 C 229.191406 278.003906 227.28125 280.957031 226.757812 284.257812 C 226.410156 286.339844 226.757812 288.597656 227.800781 290.335938 L 243.4375 292.246094 L 243.4375 262.542969 L 237.183594 257.675781 L 236.660156 234.746094 L 273.140625 234.746094 L 272.621094 257.675781 L 266.367188 262.542969 L 266.367188 295.199219 C 293.816406 297.285156 322.824219 302.148438 350.273438 305.625 Z M 136.425781 173.597656 L 136.425781 192.707031 L 131.734375 196.875 L 131.5625 230.925781 L 108.980469 230.925781 L 108.804688 196.875 L 103.941406 192.707031 L 103.941406 173.597656 L 111.757812 173.25 L 128.609375 173.25 Z M 136.425781 173.597656 " fill-opacity="1" fill-rule="evenodd"/></g></svg>